<svg xmlns="http://www.w3.org/2000/svg" width="48.002" height="47.319" viewBox="0 0 48.002 47.319">
  <g>
    <path d="M43.879,34.228a4.123,4.123,0,0,0-4.048,3.395H35a3.155,3.155,0,0,1-3.151-3.152V29.379h7.94A8.21,8.21,0,1,0,39.1,12.988c.022-.26.033-.518.033-.771A9.593,9.593,0,0,0,22.744,5.432,7.964,7.964,0,0,0,7.229,7.973c0,.158,0,.32.016.482A6.829,6.829,0,1,0,6.831,22.1h.916a6.642,6.642,0,0,0-.059.734,6.549,6.549,0,0,0,6.542,6.543h1.921V34.47A3.155,3.155,0,0,1,13,37.622H8.169a4.12,4.12,0,1,0,0,1.454H13a4.611,4.611,0,0,0,4.606-4.607V20.283a.728.728,0,1,0-1.455,0v7.641H14.23a5.084,5.084,0,0,1-.964-10.076.727.727,0,0,0,.5-1.072,4.2,4.2,0,0,1,6.474-5.171.728.728,0,0,0,1.21-.445,8.15,8.15,0,1,1,16.091,2.556.722.722,0,0,0,.207.652.713.713,0,0,0,.659.191,6.755,6.755,0,1,1,1.388,13.365h-7.94V20.283a.728.728,0,1,0-1.455,0V34.469A4.611,4.611,0,0,0,35,39.076h4.831a4.117,4.117,0,1,0,4.046-4.848ZM4.121,41.017a2.667,2.667,0,1,1,2.667-2.668A2.67,2.67,0,0,1,4.121,41.017ZM20.227,9.808a5.65,5.65,0,0,0-8.12,6.847,6.549,6.549,0,0,0-4.028,3.99H6.831a5.375,5.375,0,1,1,0-10.75,5.212,5.212,0,0,1,1.1.119.743.743,0,0,0,.659-.191A.729.729,0,0,0,8.8,9.169a6.444,6.444,0,0,1-.116-1.2A6.51,6.51,0,0,1,21.6,6.8,9.547,9.547,0,0,0,20.227,9.808ZM43.879,41.017a2.667,2.667,0,1,1,2.667-2.668A2.67,2.67,0,0,1,43.879,41.017Z" fill="#1a171b"/>
    <path d="M24.727,39.151V20.284a.727.727,0,1,0-1.454,0V39.151a4.121,4.121,0,1,0,1.454,0ZM24,45.864A2.666,2.666,0,1,1,26.667,43.2,2.669,2.669,0,0,1,24,45.864Z" fill="#1a171b"/>
  </g>
</svg>
