<svg xmlns="http://www.w3.org/2000/svg" xmlns:xlink="http://www.w3.org/1999/xlink" viewBox="0,0,256,256" width="48px" height="48px" fill-rule="nonzero"><g fill="#f97316" fill-rule="nonzero" stroke="none" stroke-width="1" stroke-linecap="butt" stroke-linejoin="miter" stroke-miterlimit="10" stroke-dasharray="" stroke-dashoffset="0" font-family="none" font-weight="none" font-size="none" text-anchor="none" style="mix-blend-mode: normal"><g transform="scale(10.66667,10.66667)"><path d="M12,2c-5.523,0 -10,4.477 -10,10c0,5.523 4.477,10 10,10c5.523,0 10,-4.477 10,-10c0,-5.523 -4.477,-10 -10,-10zM12,4c4.418,0 8,3.582 8,8c0,3.9344 -2.84383,7.19814 -6.58594,7.86719v-4.83203h2.36524l0.35156,-2.72461h-2.70117v-1.73633c0,-0.788 0.21961,-1.32031 1.34961,-1.32031h1.42773v-2.43164c-0.695,-0.071 -1.3928,-0.10552 -2.0918,-0.10352c-2.074,0 -3.49414,1.26584 -3.49414,3.58984v2.00586h-2.34375v2.72461h2.34375v4.83399c-3.7594,-0.65483 -6.62109,-3.92638 -6.62109,-7.87305c0,-4.418 3.582,-8 8,-8z"></path></g></g></svg>