<?xml version="1.0" encoding="UTF-8"?>
<svg xmlns="http://www.w3.org/2000/svg" id="Layer_1" data-name="Layer 1" viewBox="0 0 24 24">
  <path d="m18.5,15c.828,0,1.5.672,1.5,1.5s-.672,1.5-1.5,1.5-1.5-.672-1.5-1.5.672-1.5,1.5-1.5Zm0,6c-.828,0-1.5.672-1.5,1.5s.672,1.5,1.5,1.5,1.5-.672,1.5-1.5-.672-1.5-1.5-1.5Zm-8,0c-.828,0-1.5.672-1.5,1.5s.672,1.5,1.5,1.5,1.5-.672,1.5-1.5-.672-1.5-1.5-1.5Zm4-6c-.828,0-1.5.672-1.5,1.5s.672,1.5,1.5,1.5,1.5-.672,1.5-1.5-.672-1.5-1.5-1.5Zm0-6c-.828,0-1.5.672-1.5,1.5s.672,1.5,1.5,1.5,1.5-.672,1.5-1.5-.672-1.5-1.5-1.5Zm0,12c-.828,0-1.5.672-1.5,1.5s.672,1.5,1.5,1.5,1.5-.672,1.5-1.5-.672-1.5-1.5-1.5Zm7-3c-.828,0-1.5.672-1.5,1.5s.672,1.5,1.5,1.5,1.5-.672,1.5-1.5-.672-1.5-1.5-1.5Zm-10-6c-.828,0-1.5.672-1.5,1.5s.672,1.5,1.5,1.5,1.5-.672,1.5-1.5-.672-1.5-1.5-1.5Zm6.449-2.633l-1.648-1.703c-1.737-1.737-1.737-4.591.018-6.346.85-.85,1.98-1.318,3.182-1.318s2.333.468,3.182,1.319c.85.85,1.318,1.979,1.318,3.181s-.468,2.332-1.318,3.182l-1.602,1.656c-.446.437-1.021.653-1.591.653-.561,0-1.116-.209-1.54-.624Zm.49-3.807l1.061,1.097,1.043-1.079c.301-.301.457-.678.457-1.078s-.156-.777-.439-1.06c0,0,0,0,0,0-.283-.283-.66-.439-1.06-.439s-.777.156-1.061.439c-.584.585-.584,1.536,0,2.121Zm-9.439,12.939c0,1.202-.468,2.332-1.318,3.182l-1.602,1.656c-.446.437-1.021.653-1.591.653-.561,0-1.116-.209-1.54-.625l-1.648-1.703c-1.737-1.737-1.737-4.591.018-6.346.85-.85,1.98-1.318,3.182-1.318s2.333.468,3.182,1.319c.85.85,1.318,1.979,1.318,3.181Zm-3,0c0-.4-.156-.777-.439-1.06,0,0,0,0,0,0-.283-.283-.66-.439-1.06-.439s-.777.156-1.061.439c-.584.585-.584,1.536,0,2.121l1.061,1.096,1.043-1.079c.301-.301.457-.678.457-1.078Z"/>
</svg>
